<svg width="21" height="22" viewBox="0 0 21 22" fill="none" xmlns="http://www.w3.org/2000/svg">
    <path d="M19.5422 2H18V3.90781C18 4.9625 16.9125 5.75 15.7875 5.75C14.6625 5.75 13.5 4.9625 13.5 3.90781V2H7.5V3.90781C7.5 4.9625 6.375 5.75 5.25 5.75C4.125 5.75 3 4.9625 3 3.90781V2H1.45781C0.651562 2 0 2.62344 0 3.37813V20.1359C0 20.8906 0.651562 21.5 1.45781 21.5H19.5422C20.3484 21.5 21 20.8906 21 20.1312V3.37813C21 2.62344 20.3484 2 19.5422 2ZM18.75 18.6828C18.75 18.9922 18.4781 19.2453 18.15 19.2453L2.84531 19.25C2.51719 19.2359 2.25 18.9875 2.25 18.6781V7.82656C2.25 7.50313 2.52656 7.25 2.87344 7.25H18.1312C18.4734 7.25 18.75 7.49844 18.75 7.81719V18.6828Z" fill="#242427"/>
    <path d="M6.75 3.5C6.75 4.32969 6.07969 5 5.25 5C4.42031 5 3.75 4.32969 3.75 3.5V2C3.75 1.17031 4.42031 0.5 5.25 0.5C6.07969 0.5 6.75 1.17031 6.75 2V3.5Z" fill="#242427"/>
    <path d="M17.25 3.5C17.25 4.32969 16.5797 5 15.75 5C14.9203 5 14.25 4.32969 14.25 3.5V2C14.25 1.17031 14.9203 0.5 15.75 0.5C16.5797 0.5 17.25 1.17031 17.25 2V3.5Z" fill="#242427"/>
    </svg>