<svg width="20" height="20" viewBox="0 0 20 20" fill="none" xmlns="http://www.w3.org/2000/svg">
    <path d="M0 9.99919C0.0012499 4.47839 4.47839 0.0012499 9.99919 0C15.5225 0.0012499 19.9984 4.47839 19.999 9.99919C19.9978 15.5225 15.5225 19.9984 9.99919 19.999C4.47839 19.9978 0.0012499 15.5225 0 9.99919ZM2.4998 9.99919C2.5073 14.1401 5.85952 17.4911 9.99919 17.4986C14.1414 17.4911 17.4911 14.142 17.4986 9.99919C17.4905 5.85952 14.1401 2.5073 9.99919 2.4998C5.86077 2.5073 2.5073 5.86077 2.4998 9.99919Z" fill="#242427"/>
    <path d="M11.2508 8.75094V3.75197L8.75098 3.75134V11.2507H13.7506V8.75094H11.2508Z" fill="#242427"/>
  </svg> 